<mxfile host="app.diagrams.net" agent="Mozilla/5.0 (Macintosh; Intel Mac OS X 10_15_7) AppleWebKit/537.36 (KHTML, like Gecko) Chrome/135.0.0.0 Safari/537.36" version="26.2.14">
  <diagram name="Page-1" id="ERq_yXe6-IBxXUJKlvOq">
    <mxGraphModel dx="946" dy="732" grid="1" gridSize="10" guides="1" tooltips="1" connect="1" arrows="1" fold="1" page="1" pageScale="1" pageWidth="850" pageHeight="1100" math="0" shadow="0">
      <root>
        <mxCell id="0" />
        <mxCell id="1" parent="0" />
        <mxCell id="TWKGksidieTcO6BpMnWb-1" value="" style="rounded=1;whiteSpace=wrap;html=1;" parent="1" vertex="1">
          <mxGeometry x="90" y="270" width="320" height="310" as="geometry" />
        </mxCell>
        <mxCell id="TWKGksidieTcO6BpMnWb-5" value="Routing service to closest public transportation" style="rounded=1;whiteSpace=wrap;html=1;" parent="1" vertex="1">
          <mxGeometry x="138" y="316" width="100" height="100" as="geometry" />
        </mxCell>
        <mxCell id="TWKGksidieTcO6BpMnWb-6" value="Python Django Application" style="text;html=1;align=center;verticalAlign=middle;whiteSpace=wrap;rounded=0;" parent="1" vertex="1">
          <mxGeometry x="120" y="270" width="160" height="30" as="geometry" />
        </mxCell>
        <mxCell id="TWKGksidieTcO6BpMnWb-8" value="Service showing the current problems" style="rounded=1;whiteSpace=wrap;html=1;" parent="1" vertex="1">
          <mxGeometry x="258" y="316" width="100" height="100" as="geometry" />
        </mxCell>
        <mxCell id="TWKGksidieTcO6BpMnWb-10" value="Service for adding a problem" style="rounded=1;whiteSpace=wrap;html=1;" parent="1" vertex="1">
          <mxGeometry x="138" y="436" width="100" height="100" as="geometry" />
        </mxCell>
        <mxCell id="TWKGksidieTcO6BpMnWb-9" value="Service returning arrival times for station" style="rounded=1;whiteSpace=wrap;html=1;" parent="1" vertex="1">
          <mxGeometry x="258" y="436" width="100" height="100" as="geometry" />
        </mxCell>
        <mxCell id="TWKGksidieTcO6BpMnWb-3" value="" style="rounded=1;whiteSpace=wrap;html=1;dashed=1;" parent="1" vertex="1">
          <mxGeometry x="490" y="320" width="170" height="210" as="geometry" />
        </mxCell>
        <mxCell id="TWKGksidieTcO6BpMnWb-4" value="Disruptions data, stations data, arrival times data" style="shape=cylinder3;whiteSpace=wrap;html=1;boundedLbl=1;backgroundOutline=1;size=15;" parent="1" vertex="1">
          <mxGeometry x="525" y="365" width="100" height="135" as="geometry" />
        </mxCell>
        <mxCell id="TWKGksidieTcO6BpMnWb-13" value="Database" style="text;html=1;align=center;verticalAlign=middle;whiteSpace=wrap;rounded=0;" parent="1" vertex="1">
          <mxGeometry x="500" y="320" width="60" height="30" as="geometry" />
        </mxCell>
        <mxCell id="TWKGksidieTcO6BpMnWb-14" value="" style="endArrow=classic;startArrow=classic;html=1;rounded=0;entryX=0;entryY=0.5;entryDx=0;entryDy=0;entryPerimeter=0;exitX=1;exitY=0.524;exitDx=0;exitDy=0;exitPerimeter=0;" parent="1" source="TWKGksidieTcO6BpMnWb-1" target="TWKGksidieTcO6BpMnWb-4" edge="1">
          <mxGeometry width="50" height="50" relative="1" as="geometry">
            <mxPoint x="570" y="440" as="sourcePoint" />
            <mxPoint x="620" y="380" as="targetPoint" />
            <Array as="points" />
          </mxGeometry>
        </mxCell>
      </root>
    </mxGraphModel>
  </diagram>
</mxfile>
